<svg xmlns="http://www.w3.org/2000/svg" xmlns:xlink="http://www.w3.org/1999/xlink" id="Logo" width="200px" height="58.464px" viewBox="0 0 200 58.464" transform="rotate(0) scale(1, 1)"><defs><clipPath id="clip-path"><rect id="Rectangle_135" width="200" height="58.464" fill="#333333"/></clipPath></defs><g id="Group_202" clip-path="url(#clip-path)"><path id="Path_462" d="M73.515,20.834H69.285V37.691H85.8V34.308H73.515ZM115.8,37.691h4.341V20.834H115.8ZM0,24.217H7.949V37.691h4.115V24.217h8.4V20.834H0ZM46.623,26.19c0-3.213-2.593-5.355-7.667-5.355H27.682V37.691h4.227V32h6.135l4.576,5.695h4.849l-5.226-6.079c2.539-.688,4.38-2.356,4.38-5.423M38.5,28.9h-6.6V24.161h7.16c2.481,0,3.269.845,3.269,2.367,0,1.748-1.239,2.368-3.833,2.368m17.138,8.8h4.341V20.834H55.643ZM97.08,20.834H92.851V37.691H109.2V34.308H97.08Zm99.667,31.851L187.958,43.9l-2.526,2.526,8.789,8.789h-6.3v3.252H200V46.381h-3.252Zm-25.872-24.07-7.78-7.781h-4.4V37.691h4.229V26.359l7.949,7.723,7.949-7.723V37.691h4.228V20.834h-4.4ZM187.917,0V3.253h6.3l-8.789,8.789,2.526,2.526,8.789-8.789v6.305H200V0ZM153.932,3.253V0H141.849V12.085H145.1V5.779l8.789,8.789,2.527-2.526-8.79-8.788ZM153.891,43.9,145.1,52.686v-6.3h-3.252V58.464h12.083V55.212h-6.3l8.79-8.79Zm-3.536-14.605V20.834h-4.229V29.46c0,3.213-1.692,5.3-6.54,5.3s-6.539-2.087-6.539-5.3V20.834h-4.229v8.457c0,6.484,4.115,8.963,10.768,8.963s10.768-2.48,10.768-8.963" fill="#333333"/></g></svg>