<svg xmlns="http://www.w3.org/2000/svg" xmlns:xlink="http://www.w3.org/1999/xlink" width="125" height="36.54" viewBox="0 0 125 36.54"><defs><clipPath id="clip-path"><rect id="Rectangle_135" data-name="Rectangle 135" width="125" height="36.54"></rect></clipPath></defs><g id="Group_202" data-name="Group 202" clip-path="url(#clip-path)"><path id="Path_462" data-name="Path 462" d="M45.947,13.022H43.3V23.557H53.627V21.442h-7.68ZM72.372,23.557h2.713V13.022H72.372ZM0,15.136H4.968v8.421H7.54V15.136h5.25V13.022H0Zm29.139,1.233c0-2.008-1.621-3.347-4.792-3.347H17.3V23.557h2.642V20h3.835l2.86,3.559h3.031l-3.266-3.8a3.322,3.322,0,0,0,2.737-3.389M24.065,18.06H19.943V15.1h4.475c1.55,0,2.043.528,2.043,1.48,0,1.093-.775,1.48-2.4,1.48m10.711,5.5H37.49V13.022H34.777Zm25.9-10.535H58.032V23.557H68.25V21.442H60.675Zm62.292,19.907-5.493-5.493-1.579,1.579,5.493,5.493h-3.94V36.54H125V28.988h-2.033ZM106.8,17.884l-4.862-4.863H99.186V23.557h2.643V16.474L106.8,21.3l4.968-4.827v7.083h2.642V13.022h-2.749ZM117.448,0V2.033h3.94l-5.493,5.493,1.579,1.579,5.493-5.493V7.553H125V0ZM96.207,2.033V0H88.656V7.553h2.033V3.612l5.493,5.493,1.579-1.579L92.267,2.033Zm-.026,25.4-5.493,5.493v-3.94H88.656V36.54h7.552V34.508h-3.94l5.494-5.494Zm-2.21-9.128V13.022H91.329v5.391c0,2.008-1.057,3.312-4.087,3.312s-4.087-1.3-4.087-3.312V13.022H80.511v5.285c0,4.052,2.572,5.6,6.73,5.6s6.73-1.55,6.73-5.6"></path></g></svg>